<svg width="20" height="22" viewBox="0 0 20 22" fill="none" xmlns="http://www.w3.org/2000/svg">
<path d="M2.3335 19.3333C2.3335 19.5985 2.43885 19.8529 2.62639 20.0404C2.81393 20.228 3.06828 20.3333 3.3335 20.3333H16.6668C17.2191 20.3333 17.6668 19.8856 17.6668 19.3333C17.6668 17.3399 16.852 15.434 15.4113 14.0332C13.9715 12.6334 12.0245 11.8518 10.0002 11.8518C7.97578 11.8518 6.02884 12.6334 4.58904 14.0332C3.14828 15.434 2.3335 17.3399 2.3335 19.3333ZM13.391 9.70627C14.2959 8.82646 14.8097 7.6271 14.8097 6.37036C14.8097 5.11362 14.2959 3.91426 13.391 3.03445C12.487 2.15558 11.2668 1.66666 10.0002 1.66666C8.73355 1.66666 7.51333 2.15558 6.60934 3.03445C5.7044 3.91426 5.19064 5.11363 5.19064 6.37036C5.19064 7.6271 5.7044 8.82646 6.60934 9.70627C7.51333 10.5851 8.73355 11.0741 10.0002 11.0741C11.2668 11.0741 12.487 10.5851 13.391 9.70627Z" stroke="white" stroke-width="2" stroke-linecap="round" stroke-linejoin="round"/>
</svg>
