<svg width="222" height="64" viewBox="0 0 222 64" fill="none" xmlns="http://www.w3.org/2000/svg">
<g clip-path="url(#clip0_2369_994)">
<path fill-rule="evenodd" clip-rule="evenodd" d="M54.12 10.6863C48.7714 5.456 41.6345 2.3662 34.0964 2.01744C26.5583 1.66869 19.1575 4.0859 13.3323 8.79926C7.50717 13.5126 3.67379 20.1855 2.57724 27.5208C1.4807 34.8562 3.19932 42.3301 7.39909 48.49C11.5989 54.6498 17.9797 59.0555 25.3016 60.8509C32.6234 62.6463 40.3632 61.703 47.0166 58.2044C53.67 54.7058 58.7618 48.9018 61.3023 41.9205C63.8427 34.9392 63.6505 27.2793 60.7628 20.4295C59.221 16.7848 56.9638 13.4741 54.12 10.6863Z" fill="#003882"/>
<path fill-rule="evenodd" clip-rule="evenodd" d="M18.5056 52.261C18.742 52.2594 18.9735 52.3268 19.1708 52.4548C19.368 52.5828 19.522 52.7655 19.6133 52.9797C19.7045 53.194 19.7288 53.43 19.6831 53.6578C19.6374 53.8857 19.5238 54.095 19.3566 54.2592C19.1895 54.4234 18.9764 54.5351 18.7445 54.58C18.5126 54.6249 18.2724 54.601 18.0543 54.5114C17.8362 54.4217 17.6503 54.2704 17.52 54.0766C17.3897 53.8828 17.3211 53.6554 17.3228 53.4232C17.3228 53.1149 17.4474 52.8194 17.6692 52.6014C17.8911 52.3835 18.1919 52.261 18.5056 52.261Z" fill="white"/>
<path fill-rule="evenodd" clip-rule="evenodd" d="M46.4314 52.2695C46.6653 52.2695 46.894 52.3376 47.0886 52.4653C47.2831 52.593 47.4347 52.7745 47.5242 52.9869C47.6137 53.1992 47.6372 53.4329 47.5915 53.6583C47.5459 53.8837 47.4332 54.0908 47.2678 54.2533C47.1024 54.4158 46.8916 54.5265 46.6622 54.5713C46.4327 54.6162 46.1949 54.5932 45.9787 54.5052C45.7626 54.4173 45.5779 54.2683 45.4479 54.0772C45.3179 53.8861 45.2485 53.6614 45.2485 53.4316C45.2485 53.1234 45.3732 52.8278 45.595 52.6098C45.8168 52.3919 46.1177 52.2695 46.4314 52.2695Z" fill="white"/>
<path d="M51.8487 51.3684L48.9858 48.9263L49.6887 48.0842L52.2087 50.2569C51.8658 49.2126 51.5573 48.0505 51.1801 47.0316C51.112 46.8835 51.0919 46.7184 51.1225 46.5587C51.1532 46.399 51.2332 46.2525 51.3516 46.139C51.4258 46.0298 51.5316 45.9449 51.6553 45.8954C51.7791 45.8459 51.9151 45.8339 52.0458 45.8611C52.2206 45.9114 52.3798 46.0041 52.5087 46.1305L55.3973 48.5811L54.6944 49.3811L52.1744 47.2084L53.1858 50.3411C53.257 50.5174 53.2835 50.7082 53.263 50.8969C53.2374 51.0514 53.1659 51.1949 53.0573 51.3095C52.9744 51.4222 52.8591 51.508 52.7263 51.556C52.5934 51.604 52.449 51.612 52.3116 51.579C52.1432 51.5435 51.9851 51.4716 51.8487 51.3684Z" fill="#FEFEFE"/>
<path d="M11.6228 48.9769L13.2171 47.7053L13.0628 47.5116C12.9612 47.3822 12.8431 47.2662 12.7114 47.1663C12.6489 47.1224 12.5772 47.0928 12.5016 47.0797C12.4259 47.0666 12.3483 47.0703 12.2743 47.0905C12.1975 47.1079 12.1248 47.1393 12.06 47.1832C11.9571 47.2421 11.8371 47.3347 11.6657 47.4611C11.5495 47.5539 11.4406 47.6553 11.34 47.7642C11.2763 47.8281 11.2242 47.9022 11.1857 47.9832C11.1604 48.0403 11.1474 48.1019 11.1474 48.1642C11.1474 48.2265 11.1604 48.2881 11.1857 48.3453C11.2359 48.4719 11.3084 48.5887 11.4 48.6905L11.6228 48.9769ZM14.0485 48.7074L13.8942 48.5221L12.3 49.7937L12.5314 50.0716C12.6171 50.181 12.7215 50.2751 12.84 50.3495C12.8927 50.3863 12.953 50.4115 13.0167 50.4231C13.0803 50.4347 13.1458 50.4326 13.2085 50.4169C13.2746 50.4 13.338 50.3745 13.3971 50.3411C13.5485 50.2629 13.6896 50.1667 13.8171 50.0547C13.9512 49.9518 14.0772 49.8392 14.1943 49.7179C14.2397 49.6657 14.2799 49.6093 14.3143 49.5495C14.3482 49.4828 14.3659 49.4093 14.3659 49.3347C14.3659 49.2602 14.3482 49.1867 14.3143 49.12C14.249 48.9693 14.1592 48.8299 14.0485 48.7074ZM11.6057 50.3495L11.3228 50.5684L10.6457 49.7263L10.9285 49.499L10.6114 49.12C10.4193 48.9055 10.2604 48.6643 10.14 48.4042C10.0627 48.1717 10.0627 47.921 10.14 47.6884C10.2141 47.4625 10.3336 47.2535 10.4914 47.0737C10.6509 46.8989 10.8259 46.7382 11.0143 46.5937C11.195 46.4448 11.3869 46.3097 11.5885 46.1895C11.787 46.0681 12.0087 45.9878 12.24 45.9537C12.4925 45.9122 12.7517 45.9631 12.9685 46.0969C13.1871 46.2331 13.3788 46.4071 13.5343 46.6105L13.9543 47.1074L14.28 46.8463L14.9571 47.6884L14.5714 48L14.9914 48.5053C15.1633 48.695 15.2971 48.915 15.3857 49.1537C15.4673 49.3884 15.4673 49.6432 15.3857 49.8779C15.3016 50.0973 15.1733 50.2978 15.0085 50.4674C14.8487 50.6368 14.6737 50.7918 14.4857 50.9305C14.3062 51.0848 14.1109 51.2203 13.9028 51.3347C13.6945 51.4506 13.4639 51.5223 13.2257 51.5453C12.9751 51.5663 12.7245 51.504 12.5143 51.3684C12.2823 51.2033 12.0771 51.0045 11.9057 50.779L11.6057 50.3495Z" fill="#FEFEFE"/>
<path d="M9.82273 41.5916L10.5084 41.2211C10.9799 42.0632 11.4513 42.9558 11.9313 43.8148C11.9902 43.8969 12.0306 43.9905 12.0499 44.0893C12.0691 44.188 12.0666 44.2896 12.0427 44.3874C12.0115 44.502 11.9458 44.6048 11.8542 44.6821C11.7804 44.744 11.6999 44.7976 11.6142 44.8421L8.8713 46.3158C8.78313 46.3642 8.68763 46.3983 8.58844 46.4169C8.49494 46.4338 8.39908 46.4338 8.30558 46.4169C8.18676 46.381 8.0801 46.314 7.99701 46.2232C7.93388 46.1478 7.87928 46.0659 7.83415 45.979L6.43701 43.4526L7.22558 43.0316L8.40844 45.1874L8.45987 45.2632C8.45987 45.2632 8.45987 45.2632 8.5113 45.2632H8.5713H8.63987L9.31701 44.9011L8.06558 42.6105L8.86273 42.1979L10.097 44.4463L10.9027 44.0253C10.9047 44.0113 10.9047 43.9971 10.9027 43.9832L10.8856 43.7895L9.7113 41.6505L9.82273 41.5916Z" fill="#FEFEFE"/>
<path d="M8.26299 36.901L5.93156 38.5853L8.79441 39.0821L8.26299 36.901ZM9.12013 40.4463L9.05156 40.1684L5.55441 39.52C5.40264 39.4979 5.25854 39.4402 5.13441 39.3516C4.99591 39.226 4.89659 39.0643 4.84803 38.8854C4.79946 38.7065 4.80366 38.5177 4.86013 38.341C4.9159 38.1909 5.01401 38.0595 5.14298 37.9621L7.98013 35.84L7.87727 35.4526L8.73441 35.2421L9.9687 40.3621L9.11156 40.5642L9.12013 40.4463Z" fill="#FEFEFE"/>
<path d="M7.87727 30.6863H8.65728V33.6168C8.66608 33.7121 8.66608 33.8079 8.65728 33.9031C8.63365 34.0107 8.58026 34.1098 8.50299 34.1895C8.4176 34.2721 8.31093 34.3303 8.19442 34.3579C8.0948 34.37 7.99404 34.37 7.89442 34.3579H4.77442C4.67503 34.3578 4.57642 34.3407 4.48299 34.3074C4.39259 34.2833 4.30997 34.2369 4.24299 34.1726C4.15154 34.0896 4.08863 33.9807 4.06299 33.861C4.05062 33.7632 4.05062 33.6642 4.06299 33.5663V30.6779H4.92013V33.1284C4.91628 33.1592 4.91628 33.1903 4.92013 33.221V33.2716C4.95907 33.2844 5.0012 33.2844 5.04013 33.2716H5.81156V30.7453H6.73728V33.2716H7.71442C7.71442 33.2716 7.71442 33.1789 7.71442 33.12V30.6947L7.87727 30.6863Z" fill="#FEFEFE"/>
<path d="M5.44275 27.7137L6.54847 27.9411L6.85704 26.5432C6.86525 26.4592 6.86525 26.3746 6.85704 26.2905C6.87616 26.2302 6.87616 26.1656 6.85704 26.1053C6.80297 26.0401 6.73185 25.9906 6.65133 25.9621L6.36847 25.8863C6.27155 25.8771 6.17396 25.8771 6.07704 25.8863C5.9937 25.8793 5.91013 25.8969 5.83704 25.9369C5.77602 25.9791 5.72846 26.0375 5.6999 26.1053C5.66908 26.175 5.64886 26.2487 5.6399 26.3242L5.35704 27.6211C5.34454 27.6536 5.34454 27.6896 5.35704 27.7221H5.44275M7.43133 28.1348L8.95704 28.4548L8.73418 29.4737L4.96275 28.6905C4.85816 28.6805 4.75686 28.6491 4.66535 28.5983C4.57383 28.5476 4.49412 28.4786 4.43133 28.3958C4.37009 28.2963 4.33476 28.1835 4.32847 28.0674C4.31499 27.9752 4.31499 27.8816 4.32847 27.7895L4.76561 25.7769C4.78614 25.6117 4.83991 25.4522 4.92379 25.3076C5.00766 25.163 5.11998 25.0363 5.25418 24.9348C5.45283 24.8159 5.68162 24.7546 5.91418 24.7579C6.12462 24.765 6.33401 24.7903 6.5399 24.8337C6.75828 24.8778 6.971 24.9456 7.17418 25.0358C7.40568 25.1281 7.59888 25.2942 7.72275 25.5074C7.78375 25.6222 7.81883 25.7486 7.82561 25.8779C7.84684 26.0118 7.84684 26.1482 7.82561 26.2821L7.43133 28.1348Z" fill="#FEFEFE"/>
<path d="M7.08873 21.8947L8.34873 23.1074L8.86302 21.8947H7.0973C7.0973 21.8947 7.02016 21.8358 7.00302 21.8947C6.98587 21.9537 7.06302 21.8947 7.08873 21.8947ZM9.82302 24.5979L9.42873 25.5326L6.28302 22.4168C6.14835 22.2934 6.05054 22.1362 6.00016 21.9621C5.98406 21.7911 6.01079 21.6188 6.07802 21.4603C6.14525 21.3018 6.25094 21.1618 6.38587 21.0526C6.54717 20.9617 6.73153 20.9179 6.9173 20.9263H11.383L10.9459 21.8947H9.74587L9.00016 23.6716L9.8573 24.5137L9.82302 24.5979Z" fill="#FEFEFE"/>
<path d="M13.8603 16L14.5031 16.4379L12.2488 19.6126C12.1479 19.793 11.9832 19.9308 11.786 20C11.6662 20.0386 11.5371 20.0386 11.4174 20C11.323 19.9671 11.2336 19.9218 11.1517 19.8653L7.97168 17.6253L8.58882 16.7832L11.4688 18.7537C11.5043 18.7852 11.5449 18.8108 11.5888 18.8295C11.5888 18.8295 11.666 18.7537 11.6917 18.72L12.7545 17.2211L9.73739 15.1579L10.346 14.3158L13.4145 16.4126L13.7574 15.9242L13.8603 16Z" fill="#FEFEFE"/>
<path d="M16.0717 10.0211L18.5231 12.8421L17.7089 13.5242L15.5574 10.9979C15.7374 12.1011 15.926 13.2379 16.0803 14.3663C16.1222 14.5201 16.1161 14.6826 16.0625 14.8329C16.009 14.9831 15.9107 15.114 15.7803 15.2084C15.6872 15.3036 15.568 15.3701 15.4371 15.4C15.3063 15.4299 15.1694 15.4219 15.0431 15.3769C14.8778 15.2991 14.7338 15.1836 14.6231 15.04L12.146 12.1937L12.9603 11.5116L15.1289 14.0379L14.5717 10.7874C14.5235 10.6023 14.5235 10.4083 14.5717 10.2232C14.6192 10.0733 14.7118 9.94119 14.8374 9.84423C14.9362 9.74675 15.0618 9.67969 15.1989 9.65127C15.3359 9.62285 15.4784 9.63431 15.6089 9.68423C15.7898 9.75606 15.9491 9.87199 16.0717 10.0211Z" fill="#FEFEFE"/>
<path d="M21.4972 6.90526L23.28 10.2737L22.3286 10.7621L20.6743 7.66316L20.6315 7.57895C20.609 7.57285 20.5853 7.57285 20.5629 7.57895H20.5029H20.4257L19.2 8.21053L19.0457 8.31158C18.9983 8.35061 18.9652 8.40386 18.9515 8.46316C18.9259 8.53975 18.9259 8.62235 18.9515 8.69895C18.9841 8.79447 19.0242 8.88737 19.0715 8.97684C19.124 9.07659 19.1842 9.17231 19.2515 9.26316C19.2823 9.31055 19.3232 9.35078 19.3715 9.38105C19.4215 9.40785 19.4774 9.4223 19.5343 9.42316C19.6005 9.42213 19.6653 9.40476 19.7229 9.37263L20.4943 8.97684C20.5748 8.93684 20.6619 8.91118 20.7515 8.90105C20.8248 8.88942 20.9001 8.90214 20.9653 8.93722C21.0305 8.9723 21.0819 9.02772 21.1115 9.09474L21.1629 9.17895C21.1966 9.24161 21.2171 9.31038 21.2229 9.38105C21.2309 9.48671 21.2163 9.59286 21.18 9.69263C20.9486 10.3158 20.7429 11.0147 20.5286 11.6547L19.2686 12.3116L20.0486 10.2063L19.7915 10.3411C19.6346 10.4187 19.4614 10.459 19.2857 10.4589C19.1095 10.4511 18.9383 10.3989 18.7886 10.3074C18.6302 10.2049 18.4934 10.0734 18.3857 9.92C18.2737 9.77216 18.1761 9.61427 18.0943 9.44842C17.8999 9.14081 17.8043 8.7828 17.82 8.42105C17.837 8.22024 17.9215 8.03067 18.06 7.8821C18.1926 7.74573 18.3494 7.63442 18.5229 7.55368L20.4343 6.57684C20.5105 6.53089 20.5948 6.49947 20.6829 6.48421C20.7952 6.45493 20.9134 6.45493 21.0257 6.48421C21.1421 6.51675 21.2482 6.57757 21.3343 6.66105C21.3984 6.73877 21.453 6.82355 21.4972 6.91368" fill="#FEFEFE"/>
<path d="M31.2686 7.62105L29.8543 5.09474L28.9972 7.81474L31.2686 7.62105ZM27.5829 7.98316H27.8657L28.9886 4.66526C29.0252 4.49849 29.1016 4.34264 29.2115 4.21053C29.3602 4.0965 29.5377 4.02448 29.725 4.00222C29.9123 3.97996 30.1022 4.00831 30.2743 4.08421C30.4197 4.16978 30.5361 4.2958 30.6086 4.44632L32.3743 7.4779H32.7772L32.8715 8.32L27.5486 8.84211L27.4629 8L27.5829 7.98316Z" fill="#FEFEFE"/>
<path d="M36.2146 8.79157L33.8403 8.42105L33.9689 7.57894L36.0946 7.8821C36.1944 7.89019 36.2948 7.89019 36.3946 7.8821C36.4487 7.88888 36.5034 7.88888 36.5575 7.8821C36.5924 7.86855 36.6241 7.84811 36.6506 7.82203C36.6772 7.79596 36.698 7.76481 36.7118 7.73052C36.7441 7.65252 36.7643 7.57021 36.7718 7.48631C36.7766 7.41341 36.7766 7.34027 36.7718 7.26736C36.7669 7.19655 36.74 7.12892 36.6946 7.07368C36.6696 7.0495 36.6406 7.02958 36.6089 7.01473C36.5069 6.97458 36.4005 6.94632 36.2918 6.93052L34.2003 6.62736L34.3289 5.78526L36.3346 6.07158C36.4457 6.0834 36.5578 6.0834 36.6689 6.07158C36.7219 6.08832 36.7788 6.08832 36.8318 6.07158C36.9109 5.97609 36.956 5.85779 36.9603 5.73473V5.63368C36.9882 5.57279 37.0027 5.50678 37.0027 5.44C37.0027 5.37322 36.9882 5.3072 36.9603 5.24631C36.9282 5.21237 36.8864 5.18887 36.8403 5.17894L36.6689 5.13684L34.4489 4.82526L34.5775 3.98315L37.0032 4.32842C37.1817 4.3317 37.3574 4.37248 37.5186 4.44801C37.6797 4.52354 37.8226 4.63207 37.9375 4.76631C38.0488 4.91645 38.1142 5.09464 38.126 5.28C38.1432 5.44799 38.1432 5.61726 38.126 5.78526C38.1061 5.92947 38.0687 6.07082 38.0146 6.20631C37.9527 6.35547 37.8486 6.48406 37.7146 6.57684L37.586 6.65263L37.646 6.69473C37.753 6.77013 37.8337 6.87595 37.8775 6.99789C37.9214 7.09913 37.9447 7.20785 37.946 7.31789C37.957 7.46928 37.957 7.62124 37.946 7.77263C37.9226 7.95795 37.8736 8.13927 37.8003 8.31157C37.7132 8.52119 37.5475 8.68998 37.3375 8.78315C37.1738 8.84567 36.9987 8.87434 36.8232 8.86736C36.6537 8.86696 36.4846 8.85288 36.3175 8.82526" fill="#FEFEFE"/>
<path d="M42.1028 7.25054C41.9674 7.45864 41.8581 7.682 41.7771 7.91581C41.6875 8.14392 41.6243 8.3812 41.5885 8.62317C41.5558 8.76453 41.5558 8.91129 41.5885 9.05265C41.6369 9.21568 41.7434 9.35617 41.8885 9.44844C42.058 9.5603 42.2427 9.64818 42.4371 9.70949C42.6279 9.78144 42.8263 9.83228 43.0285 9.86107C43.1966 9.87975 43.3661 9.8411 43.5085 9.7516C43.6388 9.67141 43.7476 9.56167 43.8257 9.4316C43.9601 9.23318 44.0668 9.01792 44.1428 8.79159C44.2377 8.56169 44.3039 8.32134 44.34 8.07581C44.3587 7.9313 44.3441 7.7845 44.2971 7.64633C44.2389 7.47426 44.1204 7.32806 43.9628 7.2337C43.8027 7.13331 43.6297 7.05404 43.4485 6.99791C43.2716 6.92863 43.0877 6.87783 42.9 6.84633C42.7191 6.82078 42.5347 6.85641 42.3771 6.94738C42.2537 7.02599 42.1486 7.12929 42.0685 7.25054M41.2114 5.41475L40.62 6.98107L40.9114 7.09054C41.0079 6.86263 41.1378 6.64985 41.2971 6.45896C41.4565 6.26173 41.6625 6.10565 41.8971 6.00423C42.5209 5.82231 43.1917 5.87948 43.7743 6.16423C44.4139 6.31782 44.9692 6.70664 45.3257 7.25054C45.4589 7.53163 45.5036 7.84537 45.4543 8.1516C45.4049 8.49812 45.3128 8.83746 45.18 9.16212C45.0729 9.45462 44.938 9.73657 44.7771 10.0042C44.6033 10.2975 44.3434 10.5323 44.0314 10.6779C43.7075 10.8042 43.3534 10.8364 43.0114 10.7705C42.7184 10.7125 42.4314 10.6279 42.1543 10.5179C41.516 10.3664 40.9609 9.98074 40.6028 9.44002C40.4939 9.19929 40.444 8.93682 40.4571 8.6737C40.465 8.40964 40.5141 8.14834 40.6028 7.89896L40.2857 7.81475L39.6171 9.57475L38.6143 9.21265L40.2857 4.93475L41.2885 5.30528L41.2114 5.41475Z" fill="#FEFEFE"/>
<path d="M48.3943 13.1874L49.0372 10.4L46.5343 11.8484L48.3943 13.1874ZM45.4286 11.0316L45.66 11.2L48.7543 9.46527C48.8881 9.38769 49.0371 9.33889 49.1915 9.32211C49.3877 9.32931 49.5767 9.39708 49.7315 9.5158C49.8836 9.61245 50.0006 9.75395 50.0658 9.92001C50.1131 10.0823 50.1131 10.2545 50.0658 10.4169L49.3115 13.8274L49.6458 14.0716L49.1143 14.7874C47.6743 13.7432 46.2458 12.7074 44.8286 11.68L45.3686 10.9642L45.4286 11.0316Z" fill="#FEFEFE"/>
<path d="M52.6887 14.3158C52.4539 14.4085 52.2322 14.5302 52.0287 14.6779C51.8247 14.8098 51.6377 14.9653 51.4715 15.141C51.3682 15.2532 51.2894 15.3851 51.2401 15.5284C51.1846 15.6838 51.1846 15.8531 51.2401 16.0084C51.3155 16.1976 51.4164 16.3761 51.5401 16.5389C51.6458 16.6955 51.7695 16.8396 51.9087 16.9684C52.0443 17.0934 52.2202 17.1679 52.4058 17.1789C52.5524 17.1818 52.6981 17.1561 52.8344 17.1032C53.0619 17.0066 53.2775 16.8851 53.4773 16.741C53.6886 16.6056 53.8815 16.4443 54.0515 16.261C54.1532 16.1555 54.2293 16.0289 54.2744 15.8905C54.3326 15.7183 54.3326 15.5322 54.2744 15.36C54.1946 15.1904 54.0969 15.0296 53.983 14.88C53.8777 14.7255 53.7571 14.5817 53.623 14.4505C53.4871 14.3311 53.3159 14.2573 53.1344 14.24C52.9874 14.2308 52.8403 14.2568 52.7058 14.3158M54.1544 13.6758C54.367 13.8942 54.5592 14.131 54.7287 14.3832C54.9096 14.6237 55.0674 14.8803 55.2001 15.1495C55.3561 15.4567 55.4157 15.8026 55.3715 16.1432C55.2924 16.4615 55.1265 16.7527 54.8915 16.9853C54.6644 17.214 54.4146 17.4199 54.1458 17.6C53.896 17.777 53.629 17.9293 53.3487 18.0547C53.0247 18.2112 52.6608 18.2698 52.303 18.2232C51.6798 18.0218 51.1585 17.594 50.8458 17.0274C50.4155 16.5439 50.1887 15.9176 50.2115 15.2758C50.303 14.9612 50.4579 14.668 50.667 14.4134C50.8761 14.1588 51.1351 13.948 51.4287 13.7937C51.6964 13.6046 51.9837 13.4437 52.2858 13.3137C52.5987 13.1706 52.9482 13.1237 53.2887 13.1789C53.6123 13.2656 53.9057 13.4374 54.1373 13.6758H54.1544Z" fill="#FEFEFE"/>
<path d="M58.2259 22.2821L57.1545 22.6695C57.3259 23.1158 57.4888 23.5705 57.6602 24.0169C57.6765 24.0942 57.7094 24.1673 57.7567 24.2312C57.804 24.2951 57.8646 24.3483 57.9345 24.3874C58.0159 24.4088 58.1016 24.4088 58.1831 24.3874C58.2805 24.3706 58.3754 24.3423 58.4659 24.3032C58.5584 24.2729 58.6474 24.2334 58.7316 24.1853C58.8047 24.1473 58.8644 24.0886 58.9031 24.0169C58.9245 23.9454 58.9245 23.8694 58.9031 23.7979C58.9031 23.7221 58.9031 23.6379 58.8431 23.579C58.6802 23.1663 58.5259 22.7369 58.3716 22.3326C58.3716 22.3326 58.3716 22.2653 58.3202 22.2569C58.2688 22.2484 58.2431 22.2569 58.2002 22.2569M56.2888 22.9474L54.8573 23.5032L54.4888 22.5179L58.1059 21.2126C58.1903 21.1748 58.2798 21.1493 58.3716 21.1369C58.4885 21.1168 58.6088 21.1346 58.7145 21.1874C58.8176 21.234 58.9063 21.3067 58.9716 21.3979C59.0255 21.4776 59.0714 21.5622 59.1088 21.6505L59.8288 23.579C59.8943 23.7308 59.9281 23.894 59.9281 24.059C59.9281 24.2239 59.8943 24.3871 59.8288 24.539C59.7269 24.7453 59.5661 24.9179 59.3659 25.0358C59.1859 25.1452 58.993 25.2329 58.7916 25.2969C58.5859 25.3809 58.3697 25.4375 58.1488 25.4653C57.9021 25.5033 57.6495 25.462 57.4288 25.3474C57.3206 25.2795 57.2249 25.1941 57.1459 25.0947C57.0651 24.9856 56.9989 24.8667 56.9488 24.7411L56.2888 22.9474Z" fill="#FEFEFE"/>
<path d="M59.1431 27.3684C58.8929 27.3341 58.639 27.3341 58.3888 27.3684C58.1443 27.3858 57.9027 27.431 57.6688 27.5032C57.5263 27.5492 57.3949 27.6238 57.2831 27.7221C57.162 27.8379 57.0811 27.9881 57.0517 28.1516C57.0255 28.5391 57.0602 28.9282 57.1545 29.3053C57.2126 29.4794 57.327 29.6302 57.4803 29.7348C57.6069 29.8061 57.7468 29.8519 57.8917 29.8695C58.1393 29.8994 58.3898 29.8994 58.6374 29.8695C58.8905 29.8535 59.1408 29.8083 59.3831 29.7348C59.5216 29.691 59.6479 29.616 59.7517 29.5158C59.8878 29.3893 59.9729 29.2189 59.9917 29.0358C60.0132 28.8511 60.0132 28.6647 59.9917 28.48C59.978 28.2944 59.9435 28.1108 59.8888 27.9326C59.8314 27.7627 59.7203 27.6152 59.5717 27.5116C59.4411 27.4339 59.2948 27.3851 59.1431 27.3684ZM60.7203 27.5116C60.7988 27.8037 60.8476 28.1027 60.866 28.4042C60.8928 28.7012 60.8928 28.9999 60.866 29.2969C60.8443 29.6406 60.7222 29.971 60.5145 30.2484C60.2886 30.503 59.9899 30.6849 59.6574 30.7705C59.3476 30.8611 59.0285 30.9176 58.706 30.939C58.401 30.9696 58.0937 30.9696 57.7888 30.939C57.4246 30.9224 57.0744 30.7959 56.786 30.5769C56.53 30.3537 56.3479 30.0604 56.2631 29.7348C56.1887 29.459 56.1399 29.1771 56.1174 28.8926C56.0865 28.5931 56.0865 28.2912 56.1174 27.9916C56.1317 27.6503 56.2513 27.3214 56.4603 27.0484C56.6971 26.8086 56.981 26.6184 57.2948 26.4896C57.6087 26.3608 57.9459 26.2959 58.286 26.299C58.605 26.2651 58.9269 26.2651 59.246 26.299C59.5919 26.3229 59.9216 26.4524 60.1888 26.6695C60.4559 26.8909 60.6523 27.1833 60.7545 27.5116H60.7203Z" fill="#FEFEFE"/>
<path d="M56.8542 35.7726L56.0742 35.6968L56.2799 33.7684C56.3031 33.5232 56.3608 33.2823 56.4514 33.0526C56.557 32.7768 56.7453 32.539 56.9914 32.3705C57.2564 32.1871 57.5679 32.0793 57.8914 32.0589C58.1762 32.0276 58.4637 32.0276 58.7485 32.0589C59.0676 32.0849 59.3834 32.1413 59.6914 32.2274C59.9897 32.3142 60.2609 32.4735 60.4799 32.6905C60.6983 32.9265 60.8439 33.2185 60.8999 33.5326C60.9297 33.7647 60.9297 33.9995 60.8999 34.2316L60.7114 36.0758L59.8542 35.9832L59.9999 34.5263C60.0297 34.3168 60.0297 34.1042 59.9999 33.8947C59.9767 33.7231 59.8878 33.5665 59.7514 33.4568C59.643 33.3733 59.5214 33.3078 59.3914 33.2632C59.1544 33.19 58.9102 33.142 58.6628 33.12C58.4292 33.095 58.1935 33.095 57.9599 33.12C57.8524 33.1331 57.748 33.1644 57.6514 33.2126C57.4967 33.2866 57.3769 33.4163 57.3171 33.5747C57.2358 33.7738 57.1867 33.984 57.1714 34.1979L57.0085 35.7726H56.8542Z" fill="#FEFEFE"/>
<path d="M55.5946 40.4211L54.8574 40.2358L55.4146 38.3747C55.4806 38.137 55.5817 37.91 55.7146 37.7011C55.872 37.4481 56.1015 37.2461 56.3746 37.12C56.6683 36.9944 56.9901 36.9451 57.3089 36.9768C57.5995 37.0051 57.8866 37.0616 58.166 37.1453C58.4616 37.2316 58.7485 37.3443 59.0231 37.4821C59.3002 37.6197 59.5387 37.8222 59.7174 38.0716C59.9045 38.3422 60.0032 38.6624 60.0003 38.9895C59.9959 39.2236 59.9584 39.456 59.8889 39.68L59.3574 41.4568L58.5003 41.2042L58.9203 39.7979C58.9877 39.5987 59.0308 39.3923 59.0489 39.1832C59.0568 39.0074 58.9954 38.8355 58.8774 38.7032C58.792 38.597 58.6837 38.5107 58.5603 38.4505C58.3437 38.3338 58.1134 38.2433 57.8746 38.1811C57.6485 38.1127 57.4158 38.0676 57.1803 38.0463C57.0721 38.0338 56.9628 38.0338 56.8546 38.0463C56.6943 38.0961 56.5574 38.2006 56.4688 38.341C56.35 38.5219 56.263 38.7212 56.2117 38.9305L55.7146 40.48L55.5946 40.4211Z" fill="#FEFEFE"/>
<path d="M55.6799 46.7116L52.3799 44.8842L52.9027 43.9663L55.817 45.5916C55.6199 45.2463 54.1713 42.7705 54.1027 42.6274C54.0071 42.4959 53.9557 42.3384 53.9557 42.1768C53.9557 42.0153 54.0071 41.8578 54.1027 41.7263C54.157 41.605 54.2457 41.5016 54.3581 41.4284C54.4706 41.3552 54.6021 41.3154 54.737 41.3137C54.9169 41.3294 55.0903 41.3871 55.2427 41.4821L58.577 43.3011L58.0542 44.2274L55.1313 42.6021L56.7942 45.4737C56.897 45.6343 56.9615 45.8156 56.9827 46.0042C56.9875 46.1639 56.9458 46.3216 56.8627 46.459C56.8068 46.5855 56.7127 46.6921 56.5932 46.7644C56.4736 46.8366 56.3343 46.8711 56.1942 46.8632C56.0244 46.8388 55.8612 46.7816 55.7142 46.6947L55.6799 46.7116Z" fill="#FEFEFE"/>
<path d="M38.2457 54.7368L38.5714 56.0168L40.2342 55.6463C40.4142 55.6463 40.6285 55.5621 40.7228 55.3853C40.7646 55.2928 40.7794 55.1908 40.7657 55.0905C40.7631 54.9793 40.7458 54.8689 40.7143 54.7621C40.6958 54.6511 40.6611 54.5434 40.6114 54.4421C40.5761 54.3502 40.517 54.2689 40.44 54.2063C40.3578 54.165 40.2665 54.1448 40.1742 54.1474C40.0859 54.138 39.9969 54.138 39.9085 54.1474L38.3828 54.4842C38.337 54.4895 38.2946 54.5103 38.2628 54.5432C38.2588 54.5598 38.2588 54.5771 38.2628 54.5937C38.2587 54.6272 38.2587 54.6612 38.2628 54.6947M38.7857 56.9432L39.1885 58.6274L37.9971 58.9474C37.6657 57.5439 37.3342 56.1403 37.0028 54.7368C36.9624 54.6299 36.9468 54.5154 36.9572 54.4017C36.9676 54.2881 37.0037 54.1782 37.0628 54.08C37.1335 53.9702 37.2346 53.8826 37.3543 53.8274C37.447 53.774 37.5485 53.737 37.6543 53.7179L40.02 53.1874C40.1875 53.1413 40.3603 53.1158 40.5343 53.1116C40.7567 53.1057 40.9765 53.1611 41.1685 53.2716C41.3912 53.414 41.5646 53.6196 41.6657 53.861C41.7671 54.0798 41.8446 54.3084 41.8971 54.5432C41.9539 54.7864 41.9854 55.0347 41.9914 55.2842C42.006 55.5673 41.9213 55.8467 41.7514 56.0758C41.6559 56.1855 41.5431 56.2794 41.4171 56.3537C41.2806 56.4306 41.1333 56.4873 40.98 56.5221L38.7857 56.9432Z" fill="#FEFEFE"/>
<path d="M27.1287 54.8211L26.4687 57.1032L26.7687 57.1874C26.9516 57.2468 27.142 57.2808 27.3344 57.2884C27.4266 57.2909 27.5182 57.2733 27.6027 57.2369C27.6872 57.2005 27.7624 57.1462 27.823 57.0779C27.8813 57.004 27.9276 56.9216 27.9601 56.8337C28.1115 56.5087 28.221 56.1664 28.2859 55.8147C28.2994 55.7113 28.2994 55.6066 28.2859 55.5032C28.2726 55.4289 28.2446 55.358 28.2035 55.2944C28.1623 55.2308 28.1087 55.1758 28.0459 55.1326C27.9072 55.048 27.7572 54.9829 27.6001 54.9389L27.1287 54.8211ZM25.0116 56.6989L25.3116 56.7832L25.9716 54.5011L25.543 54.3747C25.3876 54.3277 25.2256 54.305 25.063 54.3074C24.9063 54.3131 24.7583 54.3797 24.6516 54.4926C24.5966 54.5535 24.5505 54.6215 24.5144 54.6947C24.4291 54.8698 24.3631 55.0533 24.3173 55.2421C24.2598 55.4295 24.2168 55.6209 24.1887 55.8147C24.1766 55.8957 24.1766 55.978 24.1887 56.0589C24.2025 56.1481 24.2367 56.2331 24.2886 56.3075C24.3406 56.3818 24.409 56.4437 24.4887 56.4884C24.6522 56.5822 24.8282 56.653 25.0116 56.6989ZM26.2544 53.5495L26.3659 53.1537L27.523 53.4821L27.4287 53.8947L28.0116 54.0547C28.3344 54.1325 28.6436 54.2574 28.9287 54.4253C29.1716 54.5742 29.3513 54.8045 29.4344 55.0737C29.5281 55.3443 29.5575 55.6323 29.5201 55.9158C29.4907 56.184 29.4362 56.449 29.3573 56.7074C29.2839 56.9632 29.1922 57.2137 29.083 57.4568C28.9743 57.7015 28.8202 57.9243 28.6287 58.1137C28.4156 58.3091 28.1397 58.4252 27.8487 58.4421C27.558 58.4567 27.2671 58.4167 26.9916 58.3242L26.2373 58.1137L26.1001 58.5853L24.943 58.2568L25.0801 57.7937L24.3259 57.5832C24.0392 57.5099 23.7669 57.3904 23.5201 57.2295C23.2835 57.0646 23.1136 56.8231 23.0401 56.5474C22.9886 56.2859 22.9886 56.0172 23.0401 55.7558C23.08 55.4914 23.1372 55.2298 23.2116 54.9726C23.2826 54.7122 23.3773 54.4586 23.4944 54.2147C23.6156 53.969 23.7879 53.751 24.0001 53.5747C24.2182 53.3928 24.4941 53.2915 24.7801 53.2884C25.1091 53.2886 25.436 53.3398 25.7487 53.44L26.2544 53.5495Z" fill="#FEFEFE"/>
<path d="M33.18 55.2926C32.82 56.2779 32.2542 57.4147 31.8257 58.4H34.56L33.18 55.2926ZM30.2314 58.4084H30.5828L32.2971 54.6863C32.3605 54.5239 32.4635 54.3793 32.5971 54.2653C32.7769 54.1329 32.9985 54.0672 33.2228 54.08C33.4285 54.0689 33.6325 54.122 33.8057 54.2316C33.964 54.3421 34.0838 54.498 34.1485 54.6779L35.8628 58.3832H36.3342V59.3684H30.1714V58.4084H30.2314Z" fill="#FEFEFE"/>
<path fill-rule="evenodd" clip-rule="evenodd" d="M20.4087 35.7558C17.9402 35.9495 15.5573 35.5621 16.0373 31.2674C16.5516 28.6232 15.9944 27.2505 14.9487 26.4674C16.2602 26.4674 17.5202 25.6253 18.703 23.2C20.8802 19.4611 23.143 20.3705 25.0716 21.8947C24.1544 19.6295 23.9402 17.2295 28.243 16.3537C30.9687 16.0253 32.1087 14.9811 32.5287 13.7684C32.983 14.9895 34.1487 16 36.8573 16.3621C41.143 17.2042 40.7744 19.6211 39.8487 21.8695C41.7344 20.2947 44.1773 19.4021 46.363 23.1495C47.5202 25.6 48.7973 26.3832 50.1173 26.4169C49.063 27.2 48.5144 28.5726 49.0287 31.2169C49.5087 35.5116 47.1344 35.9326 44.6659 35.7558C46.7487 37.0274 48.3344 38.9979 45.3859 42.1811C43.3802 44.0337 43.0202 45.4569 43.3887 46.7032C42.3087 45.9621 40.8173 45.8611 38.4002 47.1748C34.3973 48.9432 33.1202 46.9811 32.5287 44.6484C31.9373 47.0147 30.6516 48.9769 26.6487 47.1748C24.2402 45.8695 22.7487 45.9621 21.6602 46.6947C22.0373 45.4569 21.6602 44.0337 19.663 42.1811C16.7059 38.9979 18.3002 36.9769 20.3916 35.7221L20.4087 35.7558Z" fill="#FCC954"/>
<path fill-rule="evenodd" clip-rule="evenodd" d="M21.7889 35.1916C19.6032 35.36 17.5032 35.0232 17.9232 31.2169C18.3774 28.8674 17.8803 27.6632 16.9546 27.0063C18.1203 27.0063 19.2517 26.2821 20.2803 24.1095C22.2089 20.8 24.2317 21.5832 25.9203 22.9642C25.1146 20.96 24.9174 18.8295 28.7317 18.0547C31.1489 17.76 32.1603 16.8337 32.546 15.7642C32.9317 16.8337 33.9603 17.76 36.3774 18.0547C40.1832 18.8295 39.8574 20.9432 39.0346 22.9305C40.7489 21.5411 42.866 20.7411 44.8032 24.0674C45.8317 26.24 46.9632 26.9305 48.1289 26.9558C47.2032 27.6547 46.706 28.8674 47.1689 31.2169C47.5974 35.0232 45.4546 35.4274 43.2946 35.2337C45.1546 36.3621 46.5517 38.1137 43.9374 40.9347C42.1546 42.5684 41.8374 43.8316 42.1632 44.9347C41.2117 44.2863 39.8832 44.2021 37.7489 45.3558C34.2003 46.9221 33.0689 45.1874 32.546 43.1158C32.0232 45.2126 30.8832 46.9474 27.3346 45.3811C25.2003 44.2274 23.906 44.3116 22.9117 44.96C23.2546 43.8653 22.9117 42.6021 21.146 40.96C18.5317 38.139 19.946 36.3537 21.7889 35.2337V35.1916Z" fill="#ED2E38"/>
<path fill-rule="evenodd" clip-rule="evenodd" d="M34.6029 40.0084C35.3082 40.668 35.9298 41.4088 36.4544 42.2147C36.49 42.3096 36.4969 42.4127 36.4741 42.5114C36.4512 42.6101 36.3997 42.7001 36.3258 42.7705C35.8286 43.2421 35.1258 43.9831 35.0144 44.0926C35.0658 44.0421 35.1772 43.84 35.0144 43.3684C34.2783 42.3627 33.4614 41.4165 32.5715 40.5389C31.6906 41.382 30.8848 42.2976 30.1629 43.2758C29.9915 43.7558 30.1115 43.9495 30.1629 44.0084C30.0515 43.8905 29.3572 43.1663 28.8601 42.6779C28.7844 42.6104 28.731 42.5222 28.7066 42.4247C28.6822 42.3272 28.6878 42.2248 28.7229 42.1305C29.2221 41.3534 29.8182 40.6405 30.4972 40.0084C29.3876 39.9506 28.2873 39.7784 27.2144 39.4947V37.381C28.8701 37.8086 30.5691 38.0543 32.2801 38.1137C34.1934 38.0854 36.0972 37.8425 37.9544 37.3895C37.9544 38.1389 37.9544 38.2316 37.9544 39.52C36.8859 39.7935 35.7915 39.9571 34.6886 40.0084" fill="white"/>
<path fill-rule="evenodd" clip-rule="evenodd" d="M42.5999 26.9474H39.1714C39.2006 26.9607 39.2251 26.9821 39.2419 27.0091C39.2587 27.0361 39.2669 27.0674 39.2656 27.0989C39.2656 30.6105 35.4685 35.84 31.2856 37.2042C33.3693 37.4569 35.4829 37.1118 37.3714 36.2105C41.5885 33.9958 42.7542 29.3221 42.8571 27.2084C42.8619 27.1744 42.8582 27.1397 42.8462 27.1074C42.8343 27.0751 42.8145 27.0462 42.7885 27.0232C42.7655 26.9962 42.7366 26.9746 42.7039 26.96C42.6713 26.9455 42.6358 26.9383 42.5999 26.9389V26.9474Z" fill="white"/>
<path fill-rule="evenodd" clip-rule="evenodd" d="M35.7085 27.1579C35.4441 29.0417 34.7465 30.8416 33.6685 32.421C32.2743 34.2331 30.4173 35.6508 28.2856 36.5305C28.5942 36.64 28.8685 36.741 29.1428 36.8168C29.5449 36.9329 29.9544 37.0229 30.3685 37.0863C32.8046 36.2049 34.9015 34.6011 36.3685 32.4968C37.4826 30.9011 38.2259 29.0841 38.5456 27.1747C38.5456 27.0063 38.3314 26.981 38.3314 26.981H35.5371C35.5971 26.981 35.7085 27.04 35.7085 27.1579Z" fill="white"/>
<path fill-rule="evenodd" clip-rule="evenodd" d="M31.0546 24.9684L30.1117 23.7474C29.786 23.3179 30.0603 23.0063 30.326 22.72C30.9603 22.0463 31.6974 21.3221 32.4003 20.5811C32.5179 20.4293 32.5757 20.2409 32.5631 20.0505C32.9403 20.5726 33.2489 20.8926 33.5831 21.3642C33.6641 21.4759 33.7009 21.6127 33.6867 21.749C33.6725 21.8854 33.6083 22.012 33.506 22.1053C32.8117 22.8547 31.9289 23.7474 31.3546 24.3453C31.1815 24.5107 31.0749 24.732 31.0546 24.9684Z" fill="#FEFEFE"/>
<path fill-rule="evenodd" clip-rule="evenodd" d="M32.5714 26.9474L31.62 25.7684C31.2943 25.339 31.5686 25.0274 31.8343 24.7326C32.4686 24.0674 33.2057 23.3432 33.9 22.5937C34.0208 22.4464 34.0818 22.2604 34.0714 22.0716C34.4486 22.5853 34.7486 22.9137 35.0829 23.3853C35.1667 23.4953 35.2061 23.6319 35.1934 23.7687C35.1808 23.9056 35.117 24.033 35.0143 24.1263C34.3114 24.8674 33.4372 25.8105 32.8543 26.3663C32.6964 26.5234 32.5968 26.728 32.5714 26.9474Z" fill="#FEFEFE"/>
<path fill-rule="evenodd" clip-rule="evenodd" d="M23.8371 26.9474H22.5086C22.4714 26.946 22.4344 26.9529 22.4002 26.9675C22.3661 26.982 22.3358 27.0039 22.3114 27.0316C22.2866 27.0554 22.2675 27.0845 22.2556 27.1165C22.2438 27.1486 22.2394 27.1829 22.2428 27.2168C22.5257 31.6126 25.2 34.939 27.6257 36.1516L27.7543 36.2105L27.9 36.1684C28.6857 35.801 29.4421 35.3759 30.1628 34.8968L30.2143 34.8379L30.06 34.72C28.3457 33.4821 25.8428 29.2547 25.8428 27.1411C25.8436 27.1099 25.8527 27.0794 25.8692 27.0528C25.8858 27.0262 25.9092 27.0043 25.9371 26.9895H23.8371" fill="white"/>
<path fill-rule="evenodd" clip-rule="evenodd" d="M29.4689 27.141C29.4689 27.0316 29.5717 26.9895 29.6317 26.9726H26.8717C26.8717 26.9726 26.666 26.9726 26.666 27.1579C27.1416 29.9789 28.5481 32.568 30.6689 34.5263C31.3234 34.1679 31.8931 33.6771 32.3403 33.0863L32.2203 32.96C32.1713 32.9095 32.1255 32.8561 32.0832 32.8C30.7355 31.1552 29.849 29.1927 29.5117 27.1074L29.4689 27.141Z" fill="white"/>
<path d="M54.1201 10.6863C48.7716 5.45598 41.6347 2.36618 34.0966 2.01743C26.5585 1.66867 19.1576 4.08588 13.3325 8.79925C7.5073 13.5126 3.67392 20.1854 2.57738 27.5208C1.48083 34.8562 3.19946 42.3301 7.39922 48.4899C11.599 54.6498 17.9799 59.0555 25.3017 60.8509C32.6236 62.6463 40.3634 61.703 47.0168 58.2044C53.6702 54.7058 58.7619 48.9018 61.3024 41.9205C63.8429 34.9392 63.6506 27.2793 60.763 20.4295C59.2211 16.7848 56.9639 13.4741 54.1201 10.6863ZM32.5115 -5.08851e-06C40.5442 0.0247091 48.2804 2.98314 54.2163 8.30013C60.1522 13.6171 63.8635 20.9127 64.6287 28.7686C65.3939 36.6244 63.1584 44.4791 58.3566 50.8057C53.5549 57.1322 46.5302 61.4785 38.6481 62.9995C30.7661 64.5205 22.5899 63.1075 15.7093 59.0353C8.82862 54.9632 3.73513 48.5227 1.41904 40.9662C-0.897056 33.4096 -0.270235 25.2769 3.17764 18.1491C6.62551 11.0213 12.648 5.40783 20.0744 2.39999C24.0191 0.804209 28.2455 -0.0113613 32.5115 -5.08851e-06Z" fill="#F9C956"/>
<path fill-rule="evenodd" clip-rule="evenodd" d="M182.297 19.2253V28.6316H179.871V19.8737C179.884 19.7985 179.884 19.7216 179.871 19.6463C179.846 19.5653 179.798 19.4926 179.734 19.4358C179.678 19.3782 179.607 19.3373 179.528 19.3179C179.443 19.309 179.357 19.309 179.271 19.3179H175.714C175.546 19.2974 175.376 19.2974 175.208 19.3179C175.028 19.3611 174.864 19.4547 174.737 19.5874C174.578 19.7644 174.476 19.9845 174.446 20.219C174.402 20.4806 174.385 20.7457 174.394 21.0105C174.39 21.3089 174.407 21.6072 174.446 21.9032C174.464 22.0651 174.514 22.2222 174.591 22.3663C174.68 22.514 174.808 22.636 174.96 22.72C175.133 22.8041 175.324 22.8473 175.517 22.8463H177.72C177.93 22.839 178.14 22.8733 178.337 22.9474C178.49 22.997 178.623 23.0947 178.714 23.2256C178.806 23.3564 178.851 23.5131 178.843 23.6716V23.9242C178.839 24.0809 178.804 24.2353 178.74 24.379C178.642 24.6107 178.496 24.82 178.311 24.9937L174.523 28.6316H171.343L175.628 24.7916H174.514C174.092 24.7982 173.675 24.6939 173.308 24.4896C172.94 24.2854 172.635 23.9884 172.423 23.6295C172.198 23.2238 172.05 22.7816 171.986 22.3242C171.926 21.8663 171.9 21.4047 171.908 20.9432C171.899 20.5322 171.922 20.1212 171.977 19.7137C172.041 19.2422 172.205 18.789 172.457 18.3832C172.716 17.9683 173.113 17.6533 173.58 17.4905C174.025 17.3497 174.492 17.287 174.96 17.3053H180.454C180.672 17.3018 180.889 17.3331 181.097 17.3979C181.361 17.4702 181.603 17.6063 181.8 17.7937C182.006 17.9731 182.154 18.207 182.228 18.4674C182.283 18.7049 182.306 18.9483 182.297 19.1916M169.894 19.3684V28.6316H167.468L167.537 20.1011C167.547 20.0369 167.547 19.9716 167.537 19.9074C167.459 20.0022 167.391 20.1037 167.331 20.2105C165.78 22.7369 164.211 25.2042 162.626 27.6716C162.465 28.0272 162.195 28.3245 161.854 28.5223C161.513 28.72 161.117 28.8083 160.723 28.7747C160.411 28.8068 160.097 28.749 159.818 28.6085C159.54 28.4679 159.309 28.2506 159.154 27.9832C158.978 27.5915 158.899 27.1644 158.923 26.7369V17.339H161.348C161.348 20.1516 161.348 22.9558 161.297 25.76C161.297 25.92 161.297 26.0632 161.297 26.0632C161.347 26.0083 161.388 25.9457 161.417 25.8779C162.874 23.419 164.477 20.9516 165.994 18.5179C166.219 18.1104 166.535 17.759 166.92 17.4905C167.245 17.2978 167.621 17.204 168 17.2211C168.324 17.1878 168.652 17.2501 168.94 17.4001C169.229 17.55 169.465 17.7808 169.62 18.0632C169.818 18.4697 169.913 18.9179 169.894 19.3684ZM157.894 26.88V28.6316H147.977C147.48 28.691 146.978 28.5648 146.571 28.2779C146.348 28.0984 146.189 27.8535 146.117 27.579C146.056 27.348 146.027 27.1101 146.031 26.8716V17.339H148.457V26.1053C148.434 26.2594 148.455 26.4168 148.517 26.56C148.611 26.6779 148.886 26.6779 149.023 26.6779H153.9V17.339H156.326V26.7116H157.86L157.894 26.88ZM138.943 19.8063L137.143 24.0926H141L139.286 19.7895C139.234 19.6632 139.148 19.4526 139.114 19.4526C139.08 19.4526 138.96 19.6632 138.908 19.7895L138.943 19.8063ZM135.231 28.6316H132.771L137.057 18.5263C137.201 18.1188 137.46 17.7596 137.803 17.4905C138.181 17.2972 138.602 17.1962 139.028 17.1962C139.455 17.1962 139.876 17.2972 140.254 17.4905C140.608 17.7555 140.875 18.1152 141.026 18.5263L145.311 28.6316H142.74L141.583 25.8442H136.388L135.334 28.6316H135.231ZM125.451 19.8063V22.8042H129.317C129.55 22.8125 129.782 22.7956 130.011 22.7537C130.229 22.7184 130.429 22.6115 130.577 22.4505C130.726 22.2562 130.821 22.0268 130.851 21.7853C130.895 21.5378 130.915 21.2869 130.911 21.0358C130.913 20.776 130.89 20.5167 130.843 20.2611C130.806 20.0283 130.705 19.8099 130.551 19.6295C130.389 19.483 130.186 19.3864 129.968 19.3516C129.765 19.3117 129.558 19.2947 129.351 19.3011H125.923C125.861 19.2919 125.798 19.2954 125.737 19.3113C125.677 19.3272 125.62 19.3553 125.571 19.3937C125.481 19.5123 125.439 19.659 125.451 19.8063ZM125.451 24.7579V28.6316H123.026V19.1495C123.018 18.9265 123.035 18.7034 123.077 18.4842C123.134 18.2286 123.265 17.9946 123.454 17.8105C123.647 17.6235 123.886 17.4898 124.148 17.4232C124.369 17.3646 124.597 17.3363 124.826 17.339H130.166C130.537 17.3281 130.908 17.3592 131.271 17.4316C131.732 17.515 132.158 17.7287 132.497 18.0463C132.891 18.4435 133.154 18.9483 133.251 19.4947C133.357 20.0074 133.405 20.5297 133.397 21.0526C133.405 21.5959 133.351 22.1383 133.234 22.6695C133.123 23.2549 132.822 23.7893 132.377 24.1937C132.121 24.3856 131.83 24.5284 131.52 24.6147C131.2 24.7094 130.868 24.7576 130.534 24.7579H125.451ZM121.328 26.8632V28.6316H113.888C113.641 28.6598 113.39 28.6598 113.143 28.6316C112.887 28.5909 112.65 28.4732 112.466 28.2947C112.267 28.105 112.13 27.8619 112.071 27.5958C112.02 27.3664 111.997 27.1317 112.003 26.8968V19.0653C112 18.8333 112.038 18.6026 112.114 18.3832C112.179 18.1774 112.284 17.9859 112.423 17.819C112.617 17.6129 112.872 17.4716 113.151 17.4147C113.393 17.3575 113.64 17.3321 113.888 17.339H121.234V19.3011H115.02C114.932 19.2927 114.843 19.2927 114.754 19.3011C114.678 19.3175 114.607 19.3523 114.548 19.4021C114.498 19.4595 114.461 19.5266 114.438 19.5992C114.416 19.6717 114.41 19.748 114.42 19.8232V21.8947H121.071V23.8484H114.42V26.2737C114.41 26.3407 114.41 26.4088 114.42 26.4758C114.437 26.5175 114.463 26.5548 114.497 26.5853C114.552 26.6314 114.622 26.6581 114.694 26.6611C114.831 26.6711 114.969 26.6711 115.106 26.6611H121.251L121.328 26.8632ZM104.306 19.5537C104.259 19.6183 104.221 19.6892 104.194 19.7642L101.143 26.7116H107.486L104.408 19.7053L104.323 19.52C104.323 19.52 104.323 19.5369 104.306 19.5537ZM97.7999 26.7116H98.657L102.394 18.4758C102.529 18.149 102.744 17.8599 103.02 17.6337C103.397 17.3584 103.862 17.2241 104.331 17.2547C104.763 17.2294 105.192 17.3385 105.557 17.5663C105.88 17.8087 106.126 18.1356 106.268 18.5095L109.988 26.7453H110.991V28.6316H97.6456V26.7116H97.7999ZM97.0713 26.8632V28.6316H89.6313C89.393 28.6405 89.1544 28.6236 88.9199 28.5811C88.6646 28.5388 88.4285 28.4213 88.2427 28.2442C88.0441 28.0545 87.9069 27.8113 87.8484 27.5453C87.7967 27.3159 87.7737 27.0812 87.7799 26.8463V19.0653C87.7771 18.8333 87.8148 18.6026 87.8913 18.3832C87.9565 18.1774 88.0612 17.9859 88.1999 17.819C88.3939 17.6129 88.6487 17.4716 88.9284 17.4147C89.1697 17.3575 89.4175 17.3321 89.6656 17.339H97.0113V19.3011H90.797C90.7086 19.2927 90.6197 19.2927 90.5313 19.3011C90.4553 19.3175 90.3846 19.3523 90.3256 19.4021C90.2752 19.4595 90.2378 19.5266 90.2156 19.5992C90.1935 19.6717 90.1871 19.748 90.197 19.8232V21.8947H96.857V23.8484H90.2056V26.2737C90.196 26.3407 90.196 26.4088 90.2056 26.4758C90.2227 26.5175 90.2491 26.5548 90.2827 26.5853C90.338 26.6314 90.4074 26.6581 90.4799 26.6611C90.6168 26.6711 90.7544 26.6711 90.8913 26.6611H97.037L97.0713 26.8632ZM80.1513 20.2105V25.659H80.9484C81.3993 25.6737 81.85 25.6226 82.2856 25.5074C82.4966 25.4536 82.6924 25.3537 82.8587 25.2152C83.0249 25.0767 83.1571 24.9031 83.2456 24.7074C83.3279 24.5106 83.3826 24.3038 83.4084 24.0926C83.4566 23.6846 83.4766 23.2739 83.4684 22.8632C83.4772 22.4802 83.4543 22.0972 83.3999 21.7179C83.3483 21.4848 83.2616 21.2606 83.1427 21.0526C83.0634 20.8936 82.9529 20.7515 82.8176 20.6345C82.6823 20.5174 82.5248 20.4277 82.3542 20.3705C81.9949 20.255 81.6175 20.2037 81.2399 20.219L80.1513 20.2105ZM76.937 25.659H77.7342V20.2105H76.637C76.2651 20.1976 75.8937 20.2489 75.5399 20.3621C75.3645 20.4164 75.2021 20.5047 75.0622 20.6219C74.9223 20.7391 74.8079 20.8827 74.7256 21.0442C74.6415 21.2115 74.5837 21.3904 74.5542 21.5747C74.4762 22.0054 74.4417 22.4427 74.4513 22.88C74.4548 23.312 74.495 23.743 74.5713 24.1684C74.5918 24.3543 74.6409 24.536 74.717 24.7074C74.8044 24.9038 74.9363 25.078 75.1027 25.2166C75.2691 25.3553 75.4655 25.4547 75.677 25.5074C76.0884 25.6108 76.5126 25.6562 76.937 25.6421V25.659ZM77.7342 18.2569V17.339H80.1513V18.24H81.5913C82.3109 18.2098 83.0308 18.2893 83.7256 18.4758C84.3053 18.6443 84.806 19.008 85.1399 19.5032C85.472 19.9872 85.6941 20.5357 85.7913 21.1116C85.8905 21.6901 85.9336 22.2766 85.9199 22.8632C85.9298 23.4462 85.8925 24.0291 85.8084 24.6063C85.7328 25.1722 85.5465 25.7183 85.2599 26.2147C84.9413 26.7301 84.4551 27.1247 83.8799 27.3347C83.2692 27.5315 82.6278 27.6199 81.9856 27.5958H80.1513V28.6316H77.7342V27.5958H75.8999C75.2605 27.6192 74.622 27.5308 74.0142 27.3347C73.4333 27.1305 72.9426 26.7347 72.6256 26.2147C72.339 25.7183 72.1527 25.1722 72.077 24.6063C72.0044 24.0282 71.9786 23.4453 71.9999 22.8632C71.9906 22.2767 72.0336 21.6906 72.1284 21.1116C72.2256 20.5357 72.4478 19.9872 72.7799 19.5032C73.1169 19.011 73.6164 18.6481 74.1942 18.4758C74.8749 18.2927 75.5803 18.2132 76.2856 18.24L77.7342 18.2569Z" fill="white"/>
<path d="M222 37.5327V46.7958H219.711L219.771 38.3748C219.781 38.2993 219.781 38.2229 219.771 38.1474C219.771 38.1474 219.771 38.0969 219.72 38.0969C219.669 38.0969 219.566 38.2484 219.454 38.4253C217.903 40.9516 216.3 43.3937 214.757 45.8863C214.598 46.23 214.335 46.5171 214.003 46.7085C213.672 46.8999 213.289 46.9863 212.906 46.9558C212.607 46.9887 212.306 46.9353 212.038 46.8021C211.77 46.669 211.547 46.4619 211.397 46.2063C211.228 45.8217 211.152 45.4038 211.174 44.9853V35.5958H213.429C213.429 38.3748 213.386 41.1621 213.377 43.9495C213.377 44.1348 213.377 44.3116 213.48 44.3116C213.583 44.3116 213.6 44.2106 213.66 44.0927C215.109 41.6337 216.72 39.1663 218.229 36.7327C218.45 36.3349 218.76 35.9922 219.137 35.7306C219.452 35.5435 219.816 35.4526 220.183 35.4695C220.499 35.4392 220.817 35.5034 221.095 35.6537C221.374 35.8039 221.599 36.0332 221.743 36.3116C221.919 36.7005 222.001 37.1242 221.983 37.5495M208.826 37.5495V46.8127H206.571L206.64 38.3916C206.65 38.3161 206.65 38.2397 206.64 38.1642C206.64 38.1642 206.64 38.1137 206.589 38.1137C206.537 38.1137 206.434 38.2653 206.323 38.4421C204.771 40.9684 203.177 43.4106 201.626 45.9032C201.454 46.2454 201.177 46.5261 200.834 46.7059C200.491 46.8856 200.1 46.9553 199.714 46.9053C199.416 46.9381 199.114 46.8847 198.846 46.7516C198.578 46.6185 198.356 46.4114 198.206 46.1558C198.03 45.773 197.95 45.3541 197.974 44.9348V35.5958H200.263L200.211 43.9495C200.211 44.1348 200.211 44.3116 200.323 44.3116C200.434 44.3116 200.434 44.2106 200.503 44.0927C201.943 41.6337 203.554 39.1663 205.071 36.7327C205.29 36.3357 205.598 35.9929 205.971 35.7306C206.286 35.5444 206.65 35.4536 207.017 35.4695C207.334 35.4398 207.653 35.5042 207.933 35.6543C208.212 35.8044 208.44 36.0333 208.586 36.3116C208.762 36.6949 208.85 37.112 208.843 37.5327L208.826 37.5495ZM196.157 45.0611V46.7958H191.34C190.724 46.8086 190.109 46.7349 189.514 46.5769C188.82 46.3851 188.195 46.0023 187.714 45.4737C187.207 44.8861 186.867 44.1773 186.729 43.419C186.6 42.7388 186.542 42.0475 186.557 41.3558C186.541 40.5713 186.604 39.7871 186.746 39.0148C186.895 38.2908 187.228 37.6158 187.714 37.0527C188.239 36.4596 188.936 36.0392 189.711 35.8484C190.271 35.7047 190.847 35.6339 191.426 35.6379H196.011V37.4569H192.42C191.844 37.4309 191.268 37.4819 190.706 37.6084C190.213 37.7323 189.785 38.0327 189.506 38.4506C189.3 38.7613 189.155 39.1068 189.077 39.4695C188.945 40.0925 188.885 40.728 188.897 41.3642C188.887 41.9721 188.944 42.5792 189.069 43.1748C189.132 43.4731 189.248 43.7581 189.411 44.0169C189.673 44.4259 190.079 44.7257 190.551 44.859C191.109 45.0107 191.687 45.0788 192.266 45.0611H196.149H196.157ZM185.014 45.0611V46.7958H180.206C179.59 46.8086 178.975 46.7349 178.38 46.5769C177.681 46.3883 177.053 46.0052 176.571 45.4737C176.064 44.8861 175.724 44.1773 175.586 43.419C175.454 42.7391 175.394 42.0478 175.406 41.3558C175.393 40.571 175.459 39.7868 175.603 39.0148C175.752 38.2908 176.085 37.6158 176.571 37.0527C177.096 36.4596 177.793 36.0392 178.569 35.8484C179.128 35.7045 179.704 35.6337 180.283 35.6379H184.877V37.4569H181.277C180.701 37.4306 180.125 37.4816 179.563 37.6084C179.069 37.73 178.64 38.0309 178.363 38.4506C178.157 38.7613 178.012 39.1068 177.934 39.4695C177.802 40.0925 177.742 40.728 177.754 41.3642C177.739 41.9722 177.797 42.5799 177.926 43.1748C177.989 43.4731 178.105 43.7581 178.269 44.0169C178.529 44.4237 178.931 44.7231 179.4 44.859C179.958 45.0096 180.536 45.0777 181.114 45.0611H184.997H185.014ZM164.606 39.2758C164.46 39.9082 164.397 40.5562 164.417 41.2042C164.402 41.8322 164.462 42.4597 164.597 43.0737C164.685 43.4803 164.864 43.8628 165.12 44.1937C165.407 44.5629 165.811 44.8269 166.269 44.9432C166.801 45.0712 167.349 45.125 167.897 45.1032C168.4 45.1187 168.904 45.0763 169.397 44.9769C169.911 44.8721 170.371 44.5952 170.7 44.1937C170.944 43.8743 171.113 43.5064 171.197 43.1158C171.449 41.8477 171.449 40.5439 171.197 39.2758C171.119 38.8859 170.949 38.5195 170.7 38.2063C170.369 37.8052 169.905 37.5311 169.389 37.4316C168.898 37.3325 168.398 37.2901 167.897 37.3053C167.397 37.2891 166.896 37.3315 166.406 37.4316C165.898 37.5392 165.442 37.8122 165.111 38.2063C164.879 38.5198 164.718 38.8789 164.64 39.259L164.606 39.2758ZM163.389 36.6737C164.666 35.4863 166.543 35.4863 167.914 35.4863C168.677 35.4675 169.44 35.5154 170.194 35.6295C171.034 35.7505 171.819 36.1139 172.449 36.6737C173.017 37.2686 173.393 38.016 173.529 38.8211C173.683 39.606 173.752 40.4049 173.734 41.2042C173.75 41.9574 173.692 42.7102 173.563 43.4527C173.431 44.3054 173.043 45.1001 172.449 45.7348C171.223 46.9221 169.191 46.9221 167.914 46.9221C164.897 46.7958 164.263 46.56 163.389 45.7348C162.06 44.48 162.06 42.459 162.06 41.2042C162.042 40.4025 162.108 39.6011 162.257 38.8127C162.407 37.9921 162.815 37.2382 163.423 36.6569L163.389 36.6737ZM152.443 38.0042V41.0695H156.377C156.615 41.0778 156.854 41.0609 157.089 41.019C157.324 40.9814 157.539 40.8655 157.697 40.6906C157.853 40.4858 157.954 40.2452 157.989 39.9916C158.025 39.7406 158.042 39.4873 158.04 39.2337C158.046 38.971 158.023 38.7084 157.971 38.4506C157.935 38.2046 157.828 37.9739 157.663 37.7853C157.494 37.6245 157.278 37.5187 157.046 37.4821C156.837 37.4425 156.624 37.4255 156.411 37.4316H152.983C152.911 37.4228 152.838 37.4287 152.769 37.449C152.7 37.4693 152.635 37.5035 152.58 37.5495C152.49 37.6771 152.453 37.8339 152.477 37.9874L152.443 38.0042ZM152.443 42.8969V46.7958H150.163V37.3306C150.156 37.1136 150.17 36.8964 150.206 36.6821C150.26 36.4391 150.385 36.2168 150.566 36.0421C150.752 35.8637 150.982 35.7361 151.234 35.6716C151.45 35.6192 151.672 35.5938 151.894 35.5958H157.234C157.599 35.5859 157.964 35.6141 158.323 35.68C158.771 35.7593 159.186 35.9673 159.514 36.2779C159.898 36.6669 160.155 37.1595 160.251 37.6927C160.354 38.1999 160.4 38.7166 160.389 39.2337C160.4 39.7711 160.348 40.308 160.234 40.8337C160.121 41.4089 159.82 41.9321 159.377 42.3242C159.135 42.5047 158.862 42.6416 158.571 42.7284C158.258 42.8265 157.932 42.8776 157.603 42.88L152.443 42.8969ZM130.286 39.259C130.145 39.8921 130.081 40.5395 130.097 41.1874C130.082 41.8153 130.142 42.4428 130.277 43.0569C130.369 43.4622 130.547 43.8439 130.8 44.1769C131.088 44.5447 131.492 44.8082 131.949 44.9263C132.484 45.0543 133.035 45.1082 133.586 45.0863C134.086 45.1015 134.587 45.0591 135.077 44.96C135.591 44.8572 136.053 44.58 136.38 44.1769C136.624 43.8575 136.793 43.4896 136.877 43.099C137.019 42.4716 137.085 41.83 137.074 41.1874C137.088 40.5396 137.025 39.8924 136.886 39.259C136.802 38.8695 136.629 38.5039 136.38 38.1895C136.051 37.79 135.59 37.516 135.077 37.4148C134.587 37.3164 134.086 37.274 133.586 37.2884C133.082 37.2719 132.579 37.3143 132.086 37.4148C131.58 37.521 131.126 37.7944 130.8 38.1895C130.547 38.5022 130.371 38.8682 130.286 39.259ZM129.069 36.6569C130.346 35.4695 132.223 35.4695 133.603 35.4695C134.366 35.4507 135.129 35.4986 135.883 35.6127C136.72 35.7352 137.501 36.0986 138.129 36.6569C138.697 37.2517 139.073 37.9991 139.209 38.8042C139.366 39.5889 139.438 40.3878 139.423 41.1874C139.435 41.9408 139.375 42.6936 139.243 43.4358C139.115 44.2897 138.726 45.0854 138.129 45.7179C136.903 46.9053 134.88 46.9053 133.603 46.9053C132.837 46.9246 132.071 46.8767 131.314 46.7621C130.477 46.6395 129.696 46.2762 129.069 45.7179C127.714 44.4632 127.714 42.4421 127.714 41.1874C127.694 40.386 127.757 39.5846 127.903 38.7958C128.053 37.9856 128.45 37.2394 129.043 36.6569H129.069ZM120.214 37.6927C120.163 37.762 120.122 37.8387 120.094 37.92L117 44.96H123.549L120.403 37.8948C120.403 37.8021 120.309 37.6674 120.257 37.6674C120.206 37.6674 120.214 37.659 120.189 37.6927H120.214ZM113.76 44.96H114.617L118.38 36.6821C118.508 36.358 118.714 36.0691 118.98 35.84C119.346 35.575 119.795 35.4467 120.249 35.4779C120.668 35.4549 121.085 35.5609 121.44 35.7811C121.75 36.0161 121.987 36.331 122.126 36.6906L125.863 44.9684H126.857V46.7874H113.657V44.96H113.76ZM103.671 39.259C103.532 39.8924 103.469 40.5396 103.483 41.1874C103.467 41.8274 103.533 42.4668 103.68 43.0906C103.767 43.4813 103.933 43.8507 104.169 44.1769C104.471 44.5564 104.893 44.8261 105.369 44.9432C105.895 45.0539 106.433 45.102 106.971 45.0863C107.519 45.1073 108.067 45.0535 108.6 44.9263C109.059 44.8082 109.466 44.5448 109.757 44.1769C110.01 43.8452 110.186 43.4628 110.271 43.0569C110.41 42.4433 110.473 41.8157 110.46 41.1874C110.476 40.5395 110.412 39.8921 110.271 39.259C110.183 38.8695 110.007 38.5042 109.757 38.1895C109.43 37.7922 108.972 37.5185 108.463 37.4148C107.973 37.3143 107.472 37.2719 106.971 37.2884C106.465 37.2726 105.959 37.315 105.463 37.4148C104.956 37.5189 104.499 37.789 104.169 38.1811C103.919 38.5001 103.741 38.8675 103.646 39.259H103.671ZM99.8914 35.68V40.16H101.143C101.143 39.4889 101.259 38.8226 101.486 38.1895C101.681 37.6109 102.013 37.0857 102.454 36.6569C103.723 35.4695 105.617 35.4695 106.98 35.4695C107.746 35.4492 108.512 35.4971 109.269 35.6127C110.101 35.742 110.878 36.1046 111.506 36.6569C112.05 37.181 112.423 37.8523 112.577 38.5853C112.76 39.4406 112.84 40.3138 112.817 41.1874C112.837 41.986 112.774 42.7846 112.629 43.5706C112.481 44.3805 112.09 45.1284 111.506 45.7179C110.254 46.9053 108.326 46.9053 106.98 46.9053C106.214 46.9246 105.448 46.8767 104.691 46.7621C103.854 46.6395 103.073 46.2762 102.446 45.7179C101.998 45.2611 101.666 44.7072 101.477 44.1011C101.248 43.4166 101.135 42.6996 101.143 41.979H99.9V46.779H97.62V35.5958H99.9L99.8914 35.68ZM92.1171 46.779H86.2286V44.96H91.4743C91.7439 44.9587 92.0131 44.939 92.28 44.9011C92.4497 44.8849 92.6151 44.8393 92.7686 44.7663C92.8733 44.7045 92.9644 44.6228 93.0365 44.5259C93.1087 44.429 93.1603 44.3189 93.1886 44.2021C93.2473 43.9738 93.2733 43.7386 93.2657 43.5032C93.2722 43.297 93.255 43.0908 93.2143 42.8884C93.1696 42.673 93.059 42.4761 92.8971 42.3242C92.8048 42.2466 92.6967 42.1892 92.58 42.1558C92.2845 42.0746 91.9782 42.0377 91.6714 42.0463H86.46V40.219H91.3971C91.699 40.2237 92.0005 40.1983 92.2971 40.1432C92.4897 40.1144 92.6689 40.0293 92.8114 39.899C93.0155 39.5931 93.1035 39.2264 93.06 38.8632V38.7369C93.091 38.5356 93.0764 38.33 93.0171 38.135C92.9579 37.9399 92.8554 37.7601 92.7171 37.6084C92.597 37.5102 92.4517 37.4462 92.2971 37.4232C92.1319 37.4065 91.9653 37.4065 91.8 37.4232H86.2971V35.5958H92.2971C92.7206 35.5453 93.15 35.5812 93.5586 35.7015C93.9672 35.8218 94.3461 36.0238 94.6714 36.2948C94.9757 36.6045 95.1838 36.993 95.2714 37.4148C95.356 37.8219 95.3934 38.2372 95.3829 38.6527C95.3971 39.0037 95.3625 39.355 95.28 39.6969C95.192 40.0623 94.9951 40.3936 94.7143 40.6484C94.5774 40.7738 94.4247 40.8813 94.26 40.9684L93.9857 41.0863C94.2114 41.1264 94.4287 41.2032 94.6286 41.3137C94.8929 41.4544 95.1124 41.6643 95.2629 41.92C95.3844 42.1439 95.4683 42.3856 95.5114 42.6358C95.5685 43.0064 95.5943 43.381 95.5886 43.7558C95.6014 44.2098 95.5494 44.6633 95.4343 45.1032C95.3133 45.6009 95.0076 46.0363 94.5771 46.3242C94.2121 46.5327 93.8058 46.6619 93.3857 46.7032C92.957 46.7625 92.5242 46.7878 92.0914 46.779H92.1171ZM78.5143 37.6927C78.4627 37.762 78.4223 37.8387 78.3943 37.92L75.3086 44.96H81.8571L78.7371 37.8948C78.7371 37.8021 78.6343 37.6674 78.5829 37.6674C78.5314 37.6674 78.54 37.659 78.5143 37.6927ZM72.0686 44.96H72.9257L76.6886 36.6821C76.8165 36.358 77.0224 36.0691 77.2886 35.84C77.6555 35.5777 78.1042 35.4496 78.5571 35.4779C78.9768 35.4538 79.3936 35.5599 79.7486 35.7811C80.0583 36.0161 80.2957 36.331 80.4343 36.6906L84.18 44.9684H85.1486V46.7874H72V44.96H72.0686Z" fill="white"/>
</g>
<defs>
<clipPath id="clip0_2369_994">
<rect width="222" height="64" fill="white"/>
</clipPath>
</defs>
</svg>
